<?xml version="1.0" encoding="UTF-8" standalone="no"?>
<!DOCTYPE svg PUBLIC "-//W3C//DTD SVG 1.1//EN" "http://www.w3.org/Graphics/SVG/1.1/DTD/svg11.dtd">
<svg width="100%" height="100%" viewBox="0 0 384 512" version="1.1" xmlns="http://www.w3.org/2000/svg" xmlns:xlink="http://www.w3.org/1999/xlink" xml:space="preserve" xmlns:serif="http://www.serif.com/" style="fill-rule:evenodd;clip-rule:evenodd;stroke-linejoin:round;stroke-miterlimit:2;">
    <path d="M384,144C384,99.8 348.2,64 304,64C259.8,64 224,99.8 224,144C224,180.4 248.3,211.1 281.5,220.8C280.9,236.9 277.3,249.3 270.5,257.7C255.1,276.9 221.2,280.1 185.3,283.4C157.1,286 127.9,288.8 104,300.3L104,156.3C136.5,146.1 160,115.8 160,80C160,35.8 124.2,0 80,0C35.8,0 0,35.8 0,80C0,115.8 23.5,146.1 56,156.3L56,355.6C23.5,365.9 0,396.2 0,432C0,476.2 35.8,512 80,512C124.2,512 160,476.2 160,432C160,398 138.8,368.9 108.8,357.4C111.9,352.2 116.6,347.6 123.7,344C139.9,335.8 164.1,333.6 189.8,331.2C232,327.3 279.8,322.8 308,287.8C322,270.4 329.1,248 329.6,219.9C361.2,209.1 384,179.2 384,144ZM80,64C88.8,64 96,71.2 96,80C96,88.8 88.8,96 80,96C71.2,96 64,88.8 64,80C64,71.2 71.2,64 80,64ZM80,448C71.2,448 64,440.8 64,432C64,423.2 71.2,416 80,416C88.8,416 96,423.2 96,432C96,440.8 88.8,448 80,448ZM304,128C312.8,128 320,135.2 320,144C320,152.8 312.8,160 304,160C295.2,160 288,152.8 288,144C288,135.2 295.2,128 304,128Z" style="fill:rgb(255,83,0);fill-rule:nonzero;"/>
</svg>
